<svg id="Layer_1" enable-background="new 0 0 511.346 511.346" height="512" viewBox="0 0 511.346 511.346" width="512" xmlns="http://www.w3.org/2000/svg"><circle cx="149" cy="447.673" fill="#d8d6d6" r="42.667"/><circle cx="383.667" cy="447.673" fill="#d8d6d6" r="42.667"/><path d="m74.337 149.003h415.996l-42.67 170.67-359.206 21.11z" fill="#ece2e2"/><circle cx="277" cy="127.673" fill="#7be3d4" r="106.667"/><path d="m490.336 128.003h-85.674c.195-70.43-57.053-127.997-127.662-127.997-70.431 0-127.858 57.388-127.663 127.997h-58.811l-5.943-66.208c-.972-10.826-10.045-19.122-20.916-19.122h-42.667c-11.598 0-21 9.402-21 21s9.402 21 21 21h23.467c1.353 15.073 24.149 269.095 24.208 269.618 2.551 22.11 13.851 41.267 30.19 54.21-32.546 41.563-2.811 102.839 50.135 102.839 43.966 0 74.925-43.853 59.865-85.334h114.936c-15.05 41.455 15.876 85.334 59.865 85.334 35.106 0 63.667-28.561 63.667-63.667s-28.561-63.667-63.667-63.667h-234.524c-15.952 0-29.853-9.624-35.854-23.646l335.61-19.724c9.163-.538 16.915-6.966 19.141-15.87l42.67-170.67c3.316-13.261-6.736-26.093-20.373-26.093zm-213.336-85.997c47.237 0 85.667 38.43 85.667 85.667s-38.43 85.667-85.667 85.667-85.667-38.43-85.667-85.667 38.43-85.667 85.667-85.667zm-128 427.334c-11.947 0-21.667-9.72-21.667-21.667s9.72-21.667 21.667-21.667 21.667 9.72 21.667 21.667-9.72 21.667-21.667 21.667zm234.667 0c-11.947 0-21.667-9.72-21.667-21.667s9.72-21.667 21.667-21.667 21.667 9.72 21.667 21.667-9.721 21.667-21.667 21.667zm47.368-169.725-323.399 19.005-13.34-148.617h62.26c17.502 49.652 64.88 85.337 120.444 85.337s102.942-35.685 120.444-85.337h65.996z"/><path d="m251.484 163.856c8.202 8.201 21.497 8.2 29.698 0l42.667-42.666c8.201-8.201 8.201-21.498 0-29.698-8.201-8.202-21.498-8.201-29.699-.001l-27.818 27.817-6.484-6.484c-8.201-8.201-21.497-8.201-29.698 0s-8.201 21.498 0 29.699z"/></svg>